<?xml version="1.0" standalone="no"?>
<!DOCTYPE svg PUBLIC "-//W3C//DTD SVG 20010904//EN"
 "http://www.w3.org/TR/2001/REC-SVG-20010904/DTD/svg10.dtd">
<svg version="1.0" xmlns="http://www.w3.org/2000/svg"
 width="132.000000pt" height="132.000000pt" viewBox="0 0 132.000000 132.000000"
 preserveAspectRatio="xMidYMid meet">
<metadata>
Created by potrace 1.14, written by Peter Selinger 2001-2017
</metadata>
<g transform="translate(0.000000,132.000000) scale(0.100000,-0.100000)"
fill="#000000" stroke="none">
<path d="M298 1020 c-3 -17 -1 -33 3 -36 4 -2 4 -17 -1 -33 -4 -15 -4 -34 0
-41 4 -7 5 -21 3 -31 -5 -17 2 -18 78 -18 46 0 101 0 122 0 l38 -1 -2 -55 c-1
-30 0 -57 3 -61 4 -3 3 -18 -2 -32 -4 -15 -3 -37 1 -50 5 -12 5 -22 1 -22 -4
0 -7 -36 -7 -80 0 -44 4 -80 8 -80 4 0 4 -8 -1 -17 -4 -10 -7 -24 -6 -30 1 -7
2 -42 3 -78 l1 -65 118 0 117 0 0 285 0 285 45 1 c25 0 78 0 118 0 39 -1 73 2
73 6 1 5 2 47 3 96 l2 87 -357 0 -357 0 -4 -30z"/>
</g>
</svg>
