<?xml version="1.0" standalone="no"?>
<!DOCTYPE svg PUBLIC "-//W3C//DTD SVG 20010904//EN"
 "http://www.w3.org/TR/2001/REC-SVG-20010904/DTD/svg10.dtd">
<svg version="1.0" xmlns="http://www.w3.org/2000/svg"
 width="497.000000pt" height="497.000000pt" viewBox="0 0 497.000000 497.000000"
 preserveAspectRatio="xMidYMid meet">
<metadata>
Created by potrace 1.14, written by Peter Selinger 2001-2017
</metadata>
<g transform="translate(0.000000,497.000000) scale(0.100000,-0.100000)"
fill="#000000" stroke="none">
<path d="M2183 4954 c-218 -26 -457 -90 -672 -180 -142 -60 -251 -119 -401
-219 -123 -82 -315 -233 -307 -241 2 -3 136 -22 297 -44 l293 -40 1081 0 1081
0 304 40 c167 22 306 42 308 44 8 8 -186 160 -307 241 -266 177 -530 290 -841
359 -245 55 -583 71 -836 40z"/>
<path d="M4264 4115 c19 -323 41 -574 78 -877 12 -98 18 -181 15 -185 -8 -7
-317 -36 -323 -30 -2 2 -15 66 -30 142 -53 291 -113 478 -178 565 -38 50 -126
106 -204 130 -115 36 -352 65 -689 85 l-111 7 -6 -43 c-11 -86 -25 -299 -42
-632 -17 -323 -17 -340 0 -371 22 -42 74 -71 151 -85 59 -11 906 -128 1097
-151 54 -7 113 -9 132 -6 54 10 91 61 111 152 l17 76 42 -6 c22 -4 45 -11 50
-16 5 -5 3 -75 -4 -162 -7 -84 -10 -190 -9 -234 l4 -82 -325 -92 c-316 -90
-901 -272 -988 -306 -23 -10 -41 -22 -39 -27 4 -12 628 -261 1031 -412 l288
-109 -6 -44 c-3 -25 -6 -132 -6 -239 0 -180 -1 -194 -17 -190 -10 3 -34 8 -54
11 -35 6 -36 8 -42 57 -9 76 -41 134 -84 154 -34 17 -64 17 -437 6 -753 -22
-875 -31 -940 -69 l-31 -18 -8 -220 c-9 -253 -3 -532 13 -620 17 -89 66 -180
117 -217 l43 -30 105 22 c493 103 932 344 1280 702 460 473 705 1077 705 1734
0 579 -191 1116 -557 1570 -45 55 -98 116 -118 135 l-37 35 6 -110z"/>
<path d="M654 4168 c-167 -174 -356 -467 -458 -709 -263 -629 -263 -1319 0
-1948 237 -566 723 -1058 1284 -1302 170 -73 446 -159 513 -159 38 0 103 64
136 134 68 141 64 42 68 1999 l4 1767 -48 0 c-59 0 -320 -16 -498 -31 -318
-26 -473 -83 -553 -205 -56 -83 -121 -327 -153 -573 l-13 -90 -40 -6 c-77 -10
-288 -26 -292 -22 -2 2 5 77 16 168 42 350 86 900 78 982 l-3 38 -41 -43z"/>
<path d="M2789 2675 c-15 -8 -29 -20 -32 -28 -8 -20 -31 -516 -25 -523 6 -5
1297 402 1307 412 2 2 2 6 -1 9 -8 8 -1171 146 -1213 145 -5 -1 -22 -7 -36
-15z"/>
<path d="M2718 1698 c-7 -332 -4 -338 177 -338 55 0 323 11 595 25 272 14 502
25 510 25 9 0 11 3 4 10 -6 6 -291 123 -635 261 -343 138 -629 253 -635 255
-9 4 -13 -62 -16 -238z"/>
</g>
</svg>
